# xmcd
#
# Track frame offsets:
#	150
#	9844
#	23189
#	38898
#	50630
#	62020
#	71065
#	84655
#	102190
#	111005
#	125422
#	135328
#	141994
#	154222
#	162329
#
# Disc length: 2420 seconds
#
# Revision: 1
# Processed by: cddbd v1.5.2PL0 Copyright (c) Steve Scherf et al.
# Submitted via: audiograbber 1.83.01
#
DISCID=c809720f
DTITLE=Adolescents - The Fastest Kid Alive
DYEAR=2011
DGENRE=Punk
TTITLE0=Operation FTW
TTITLE1=Inspiration
TTITLE2=Wars Aren't Won, Wars Are Fought
TTITLE3=One Nation, Under Seige
TTITLE4=Babylon by Bomb
TTITLE5=Too Fast, Too Loud
TTITLE6=Learning to Swim
TTITLE7=Can't change the world with a song
TTITLE8=Orange Crush
TTITLE9=Serf City
TTITLE10=The Jefferson Memorial Dance Revolution
TTITLE11=Tokyo Au Go-Go
TTITLE12=No Child Left Behind
TTITLE13=Branded
TTITLE14=Peace don't cost a thing
EXTD=
EXTT0=
EXTT1=
EXTT2=
EXTT3=
EXTT4=
EXTT5=
EXTT6=
EXTT7=
EXTT8=
EXTT9=
EXTT10=
EXTT11=
EXTT12=
EXTT13=
EXTT14=
PLAYORDER=
